<svg width="20" height="20" viewBox="0 0 20 20" fill="none" xmlns="http://www.w3.org/2000/svg">
<path d="M5.41667 3.12499C4.97833 3.12499 4.375 3.64999 4.375 4.64249V15.3583C4.375 16.3517 4.97833 16.8758 5.41667 16.8758H11.2467C11.4124 16.8758 11.5714 16.9417 11.6886 17.0589C11.8058 17.1761 11.8717 17.3351 11.8717 17.5008C11.8717 17.6666 11.8058 17.8256 11.6886 17.9428C11.5714 18.06 11.4124 18.1258 11.2467 18.1258H5.41667C4.01417 18.1258 3.125 16.7317 3.125 15.3583V4.64166C3.125 3.26833 4.01417 1.87416 5.41667 1.87416H11.25C11.4158 1.87416 11.5747 1.94001 11.6919 2.05722C11.8092 2.17443 11.875 2.3334 11.875 2.49916C11.875 2.66492 11.8092 2.82389 11.6919 2.9411C11.5747 3.05831 11.4158 3.12416 11.25 3.12416L5.41667 3.12499Z" fill="url(#paint0_linear_1166_654)"/>
<path d="M13.7753 6.64166C13.6581 6.52462 13.4993 6.45888 13.3337 6.45888C13.168 6.45888 13.0092 6.52462 12.892 6.64166V9.37166H7.91699C7.75123 9.37166 7.59226 9.43751 7.47505 9.55472C7.35784 9.67193 7.29199 9.8309 7.29199 9.99666C7.29199 10.1624 7.35784 10.3214 7.47505 10.4386C7.59226 10.5558 7.75123 10.6217 7.91699 10.6217H12.892V13.3583C13.0092 13.4754 13.168 13.5411 13.3337 13.5411C13.4993 13.5411 13.6581 13.4754 13.7753 13.3583L16.692 10.4417C16.7502 10.3835 16.7964 10.3144 16.8279 10.2383C16.8594 10.1622 16.8755 10.0807 16.8753 9.99833V9.99666C16.8753 9.90526 16.8552 9.81498 16.8164 9.73219C16.7777 9.6494 16.7213 9.57611 16.6512 9.51749L13.7753 6.64166Z" fill="url(#paint1_linear_1166_654)"/>
<defs>
<linearGradient id="paint0_linear_1166_654" x1="3.125" y1="18.1258" x2="11.875" y2="18.1258" gradientUnits="userSpaceOnUse">
<stop stop-color="#2BBDF1"/>
<stop offset="1" stop-color="#2922FF"/>
</linearGradient>
<linearGradient id="paint1_linear_1166_654" x1="7.29199" y1="13.5411" x2="16.8753" y2="13.5411" gradientUnits="userSpaceOnUse">
<stop stop-color="#2BBDF1"/>
<stop offset="1" stop-color="#2922FF"/>
</linearGradient>
</defs>
</svg>
