<svg width="19" height="20" viewBox="0 0 19 20" fill="none" xmlns="http://www.w3.org/2000/svg">
<path d="M4.75 5.84375C4.28027 5.84375 3.82109 5.70446 3.43052 5.44349C3.03995 5.18252 2.73554 4.8116 2.55579 4.37762C2.37603 3.94365 2.329 3.46612 2.42063 3.00541C2.51227 2.54471 2.73847 2.12152 3.07062 1.78937C3.40277 1.45722 3.82596 1.23103 4.28666 1.13939C4.74737 1.04775 5.2249 1.09478 5.65887 1.27454C6.09285 1.4543 6.46377 1.7587 6.72474 2.14927C6.98571 2.53984 7.125 2.99902 7.125 3.46875C7.125 4.09864 6.87478 4.70273 6.42938 5.14813C5.98398 5.59353 5.37989 5.84375 4.75 5.84375ZM4.75 2.28125C4.51513 2.28125 4.28554 2.3509 4.09026 2.48138C3.89498 2.61187 3.74277 2.79733 3.65289 3.01431C3.56301 3.2313 3.5395 3.47007 3.58532 3.70042C3.63114 3.93077 3.74424 4.14237 3.91031 4.30844C4.07639 4.47452 4.28798 4.58761 4.51833 4.63343C4.74868 4.67925 4.98745 4.65574 5.20444 4.56586C5.42142 4.47598 5.60689 4.32377 5.73737 4.12849C5.86785 3.93321 5.9375 3.70362 5.9375 3.46875C5.9375 3.15381 5.81239 2.85176 5.58969 2.62906C5.36699 2.40636 5.06494 2.28125 4.75 2.28125ZM14.25 5.84375C13.7803 5.84375 13.3211 5.70446 12.9305 5.44349C12.54 5.18252 12.2355 4.8116 12.0558 4.37762C11.876 3.94365 11.829 3.46612 11.9206 3.00541C12.0123 2.54471 12.2385 2.12152 12.5706 1.78937C12.9028 1.45722 13.326 1.23103 13.7867 1.13939C14.2474 1.04775 14.7249 1.09478 15.1589 1.27454C15.5928 1.4543 15.9638 1.7587 16.2247 2.14927C16.4857 2.53984 16.625 2.99902 16.625 3.46875C16.625 4.09864 16.3748 4.70273 15.9294 5.14813C15.484 5.59353 14.8799 5.84375 14.25 5.84375ZM14.25 2.28125C14.0151 2.28125 13.7855 2.3509 13.5903 2.48138C13.395 2.61187 13.2428 2.79733 13.1529 3.01431C13.063 3.2313 13.0395 3.47007 13.0853 3.70042C13.1311 3.93077 13.2442 4.14237 13.4103 4.30844C13.5764 4.47452 13.788 4.58761 14.0183 4.63343C14.2487 4.67925 14.4874 4.65574 14.7044 4.56586C14.9214 4.47598 15.1069 4.32377 15.2374 4.12849C15.3679 3.93321 15.4375 3.70362 15.4375 3.46875C15.4375 3.15381 15.3124 2.85176 15.0897 2.62906C14.867 2.40636 14.5649 2.28125 14.25 2.28125ZM15.4375 18.3125H13.0625C12.7476 18.3125 12.4455 18.1874 12.2228 17.9647C12.0001 17.742 11.875 17.4399 11.875 17.125V12.9688H13.0625V17.125H15.4375V11.7813H16.625V8.21875C16.625 8.06128 16.5624 7.91026 16.4511 7.79891C16.3397 7.68756 16.1887 7.625 16.0312 7.625H12.2194L9.5 12.375L6.78062 7.625H2.96875C2.81128 7.625 2.66026 7.68756 2.54891 7.79891C2.43756 7.91026 2.375 8.06128 2.375 8.21875V11.7813H3.5625V17.125H5.9375V12.9688H7.125V17.125C7.125 17.4399 6.99989 17.742 6.77719 17.9647C6.55449 18.1874 6.25244 18.3125 5.9375 18.3125H3.5625C3.24756 18.3125 2.94551 18.1874 2.72281 17.9647C2.50011 17.742 2.375 17.4399 2.375 17.125V12.9688C2.06006 12.9688 1.75801 12.8436 1.53531 12.6209C1.31261 12.3982 1.1875 12.0962 1.1875 11.7813V8.21875C1.1875 7.74633 1.37517 7.29327 1.70922 6.95922C2.04327 6.62517 2.49633 6.4375 2.96875 6.4375H7.46938L9.5 10L11.5306 6.4375H16.0312C16.5037 6.4375 16.9567 6.62517 17.2908 6.95922C17.6248 7.29327 17.8125 7.74633 17.8125 8.21875V11.7813C17.8125 12.0962 17.6874 12.3982 17.4647 12.6209C17.242 12.8436 16.9399 12.9688 16.625 12.9688V17.125C16.625 17.4399 16.4999 17.742 16.2772 17.9647C16.0545 18.1874 15.7524 18.3125 15.4375 18.3125Z" fill="url(#paint0_linear_1113_655)"/>
<defs>
<linearGradient id="paint0_linear_1113_655" x1="1.1875" y1="18.3125" x2="17.8125" y2="18.3125" gradientUnits="userSpaceOnUse">
<stop stop-color="#2BBDF1"/>
<stop offset="1" stop-color="#2922FF"/>
</linearGradient>
</defs>
</svg>
