<svg width="19" height="20" viewBox="0 0 19 20" fill="none" xmlns="http://www.w3.org/2000/svg">
<path d="M4.55953 16.6991C4.37217 16.6991 4.20961 16.6268 4.07186 16.4822C3.93411 16.3376 3.86523 16.1734 3.86523 15.9898V14.2291C3.86523 13.2231 4.17768 12.3346 4.80257 11.5635C5.42798 10.7925 6.23179 10.3006 7.21398 10.0879C6.76379 10.4045 6.41493 10.8033 6.1674 11.2841C5.91987 11.7649 5.79585 12.2774 5.79532 12.8215V15.9858C5.79532 16.1082 5.81511 16.2304 5.85469 16.3523C5.89428 16.4748 5.95022 16.5901 6.02253 16.6983L4.55953 16.6991ZM7.02003 16.6991C6.83055 16.6991 6.66615 16.6286 6.52682 16.4877C6.38748 16.3468 6.31782 16.1805 6.31782 15.989V12.8223C6.31782 12.0306 6.59094 11.3625 7.13719 10.8178C7.68397 10.2726 8.35319 10 9.14486 10H12.3194C13.1027 10 13.7669 10.2726 14.3121 10.8178C14.8573 11.363 15.1296 12.0314 15.1291 12.8231V13.876C15.1291 14.6677 14.8567 15.3361 14.3121 15.8813C13.7674 16.4265 13.099 16.6991 12.3068 16.6991H7.02003ZM9.49953 8.58134C8.76433 8.58134 8.1405 8.3251 7.62803 7.81263C7.11555 7.30016 6.85958 6.67632 6.86011 5.94113C6.86064 5.20593 7.11661 4.5821 7.62803 4.06963C8.1405 3.55768 8.76433 3.30171 9.49953 3.30171C10.2347 3.30171 10.8586 3.55768 11.371 4.06963C11.8835 4.58157 12.1395 5.20541 12.1389 5.94113C12.1384 6.67685 11.8824 7.30068 11.371 7.81263C10.8586 8.32457 10.2347 8.58055 9.49953 8.58055" fill="url(#paint0_linear_1113_650)"/>
<defs>
<linearGradient id="paint0_linear_1113_650" x1="3.86523" y1="16.6991" x2="15.1291" y2="16.6991" gradientUnits="userSpaceOnUse">
<stop stop-color="#2BBDF1"/>
<stop offset="1" stop-color="#2922FF"/>
</linearGradient>
</defs>
</svg>
