<svg width="24" height="24" viewBox="0 0 24 24" fill="none" xmlns="http://www.w3.org/2000/svg">
<path d="M11.9624 17.986H18.7724C19.0376 18.0009 19.3021 17.9475 19.5409 17.8311C19.7796 17.7147 19.9846 17.5391 20.1362 17.321C20.2878 17.1029 20.381 16.8497 20.4069 16.5853C20.4329 16.321 20.3907 16.0544 20.2844 15.811C19.9244 14.723 18.4894 13.418 18.4894 12.134C18.4894 9.284 18.4894 8.534 17.0854 6.858C16.631 6.31853 16.0677 5.88129 15.4324 5.575L14.6494 5.195C14.518 5.11569 14.4047 5.00978 14.3166 4.88406C14.2286 4.75834 14.1679 4.61559 14.1384 4.465C14.0601 3.9574 13.7917 3.49858 13.3876 3.18159C12.9835 2.86459 12.474 2.71316 11.9624 2.758C11.46 2.72783 10.9644 2.88601 10.5724 3.20166C10.1804 3.5173 9.92009 3.96774 9.84237 4.465C9.80712 4.62079 9.73807 4.76693 9.64009 4.89308C9.54211 5.01922 9.4176 5.12229 9.27537 5.195L8.49237 5.575C7.85741 5.88141 7.29443 6.31864 6.84037 6.858C5.43737 8.534 5.43737 9.284 5.43737 12.134C5.43737 13.418 4.06737 14.592 3.70737 15.745C3.49037 16.442 3.37037 17.986 5.18737 17.986H11.9624Z" stroke="url(#paint0_linear_1114_687)" stroke-width="1.5" stroke-linecap="round" stroke-linejoin="round"/>
<path d="M15.225 17.986C15.2335 18.4169 15.155 18.845 14.994 19.2448C14.8331 19.6445 14.5931 20.0077 14.2883 20.3124C13.9836 20.6171 13.6205 20.8571 13.2207 21.0181C12.821 21.179 12.3928 21.2576 11.962 21.249C11.531 21.2581 11.1026 21.18 10.7027 21.0192C10.3027 20.8585 9.93942 20.6184 9.63467 20.3136C9.32991 20.0087 9.08999 19.6454 8.92935 19.2453C8.76872 18.8453 8.69069 18.417 8.69996 17.986" stroke="url(#paint1_linear_1114_687)" stroke-width="1.5" stroke-linecap="round" stroke-linejoin="round"/>
<defs>
<linearGradient id="paint0_linear_1114_687" x1="3.58789" y1="17.9884" x2="20.4144" y2="17.9884" gradientUnits="userSpaceOnUse">
<stop stop-color="#2BBDF1"/>
<stop offset="1" stop-color="#2922FF"/>
</linearGradient>
<linearGradient id="paint1_linear_1114_687" x1="8.69922" y1="21.2497" x2="15.2256" y2="21.2497" gradientUnits="userSpaceOnUse">
<stop stop-color="#2BBDF1"/>
<stop offset="1" stop-color="#2922FF"/>
</linearGradient>
</defs>
</svg>
