<svg width="19" height="20" viewBox="0 0 19 20" fill="none" xmlns="http://www.w3.org/2000/svg">
<path d="M13.4401 15.9375C14.8312 15.0163 15.8549 13.6361 16.3328 12.0376C16.8106 10.439 16.7123 8.72342 16.055 7.18991C15.3976 5.6564 14.223 4.4022 12.7358 3.64594C11.2486 2.88968 9.5431 2.67932 7.91669 3.05154M13.4401 15.9375V13.1667M13.4401 15.9375H16.2292M5.54169 4.07517C4.15541 4.99976 3.13703 6.38099 2.66366 7.97867C2.19029 9.57635 2.29187 11.2894 2.95074 12.8199C3.6096 14.3505 4.78407 15.6017 6.26991 16.356C7.75574 17.1103 9.45895 17.3199 11.0834 16.9485M5.54169 4.07517V6.83333M5.54169 4.07517H2.77086" stroke="url(#paint0_linear_1113_660)" stroke-width="1.5" stroke-linecap="round" stroke-linejoin="round"/>
<path d="M8.26309 12.1114V7.88863M9.49967 7.88863V6.83333M9.49967 13.1667V12.1114M8.26309 10H10.7363M10.7363 10C11.1463 10 11.4788 10.3547 11.4788 10.7917V11.3197C11.4788 11.7567 11.1463 12.1114 10.737 12.1114H7.52051M10.7363 10C11.1455 10 11.4788 9.64533 11.4788 9.20833V8.68029C11.4788 8.24329 11.1463 7.88863 10.737 7.88863H7.52051" stroke="url(#paint1_linear_1113_660)" stroke-width="1.5" stroke-linecap="round" stroke-linejoin="round"/>
<defs>
<linearGradient id="paint0_linear_1113_660" x1="2.37012" y1="17.1277" x2="16.6312" y2="17.1277" gradientUnits="userSpaceOnUse">
<stop stop-color="#2BBDF1"/>
<stop offset="1" stop-color="#2922FF"/>
</linearGradient>
<linearGradient id="paint1_linear_1113_660" x1="7.52051" y1="13.1667" x2="11.4788" y2="13.1667" gradientUnits="userSpaceOnUse">
<stop stop-color="#2BBDF1"/>
<stop offset="1" stop-color="#2922FF"/>
</linearGradient>
</defs>
</svg>
