<svg width="19" height="20" viewBox="0 0 19 20" fill="none" xmlns="http://www.w3.org/2000/svg">
<g clip-path="url(#clip0_1113_634)">
<path d="M8.3125 14.7593V9.18359L2.375 6.21484V14.3789L7.42188 16.9116L7.13428 18.0898L1.1875 15.1211V4.87891L8.90625 1.02881L16.625 4.87891V7.38379C16.1921 7.45182 15.7962 7.59098 15.4375 7.80127V6.21484L9.5 9.18359V13.5718L8.3125 14.7593ZM6.99512 3.30176L12.4131 6.40039L14.7046 5.25L8.90625 2.34619L6.99512 3.30176ZM8.90625 8.15381L11.1328 7.04053L5.71484 3.94189L3.10791 5.25L8.90625 8.15381ZM17.1445 8.8125C17.4043 8.8125 17.6455 8.85889 17.8682 8.95166C18.0908 9.04443 18.2887 9.17122 18.4619 9.33203C18.6351 9.49284 18.765 9.68766 18.8516 9.9165C18.9382 10.1453 18.9876 10.3896 19 10.6494C19 10.8906 18.9536 11.1257 18.8608 11.3545C18.7681 11.5833 18.6351 11.7843 18.4619 11.9575L11.8101 18.6094L8.3125 19.4814L9.18457 15.9839L15.8364 9.34131C16.0158 9.16195 16.2168 9.02897 16.4395 8.94238C16.6621 8.85579 16.8971 8.8125 17.1445 8.8125ZM17.6177 11.1226C17.7476 10.9927 17.8125 10.835 17.8125 10.6494C17.8125 10.4577 17.7507 10.3031 17.627 10.1855C17.5033 10.068 17.3424 10.0062 17.1445 10C17.0579 10 16.9744 10.0124 16.894 10.0371C16.8136 10.0618 16.7425 10.1082 16.6807 10.1763L10.2607 16.5962L9.94531 17.8486L11.1978 17.5332L17.6177 11.1226Z" fill="url(#paint0_linear_1113_634)"/>
</g>
<defs>
<linearGradient id="paint0_linear_1113_634" x1="1.1875" y1="19.4814" x2="19" y2="19.4814" gradientUnits="userSpaceOnUse">
<stop stop-color="#2BBDF1"/>
<stop offset="1" stop-color="#2922FF"/>
</linearGradient>
<clipPath id="clip0_1113_634">
<rect width="19" height="19" fill="white" transform="translate(0 0.5)"/>
</clipPath>
</defs>
</svg>
