<svg width="19" height="20" viewBox="0 0 19 20" fill="none" xmlns="http://www.w3.org/2000/svg">
<path d="M13.3647 8.03409L9.80222 5.92628C9.71065 5.87225 9.60624 5.8438 9.49992 5.8439C9.39359 5.84401 9.28925 5.87266 9.19778 5.92687L5.63528 8.03468C5.54654 8.08716 5.47299 8.16184 5.42187 8.25137C5.37075 8.34091 5.34383 8.44221 5.34375 8.54531V12.6422C5.34375 12.8524 5.45478 13.0465 5.63528 13.1528L9.19778 15.2606C9.28909 15.3154 9.39355 15.3443 9.5 15.3443C9.60645 15.3443 9.71091 15.3154 9.80222 15.2606L13.3647 13.1528C13.4535 13.1003 13.527 13.0256 13.5781 12.9361C13.6292 12.8466 13.6562 12.7453 13.6562 12.6422V8.54531C13.6563 8.44211 13.6294 8.34068 13.5783 8.25104C13.5272 8.16139 13.4535 8.08662 13.3647 8.03409ZM12.4688 12.3037L9.5 14.0601L6.53125 12.3037V8.88374L9.5 7.12743L12.4688 8.88374V12.3037Z" fill="url(#paint0_linear_1113_644)"/>
<path d="M3.5625 12.4843V7.07281L7.24375 4.89731L6.63991 3.87488L2.66653 6.22316C2.5777 6.27568 2.5041 6.35046 2.45297 6.44011C2.40185 6.52975 2.37498 6.63118 2.375 6.73438V12.4843C2.0289 12.6066 1.72905 12.8329 1.51649 13.1322C1.30392 13.4315 1.18902 13.7892 1.1875 14.1562C1.1875 15.1383 1.98669 15.9375 2.96875 15.9375C3.95081 15.9375 4.75 15.1383 4.75 14.1562C4.74848 13.7892 4.63358 13.4315 4.42101 13.1322C4.20845 12.8329 3.9086 12.6066 3.5625 12.4843ZM2.96875 14.75C2.81587 14.7432 2.67152 14.6776 2.56576 14.567C2.45999 14.4564 2.40097 14.3093 2.40097 14.1562C2.40097 14.0032 2.45999 13.8561 2.56576 13.7455C2.67152 13.6349 2.81587 13.5693 2.96875 13.5625C3.12163 13.5693 3.26598 13.6349 3.37174 13.7455C3.47751 13.8561 3.53653 14.0032 3.53653 14.1562C3.53653 14.3093 3.47751 14.4564 3.37174 14.567C3.26598 14.6776 3.12163 14.7432 2.96875 14.75ZM16.0312 12.375C15.0492 12.375 14.25 13.1742 14.25 14.1562C14.25 14.3658 14.2927 14.5642 14.3598 14.7512L9.5 17.6226L5.69762 15.3758L5.09378 16.3982L9.19778 18.8231C9.28925 18.8773 9.39359 18.906 9.49992 18.9061C9.60624 18.9062 9.71065 18.8777 9.80222 18.8237L15.1222 15.6798C15.3894 15.8395 15.6982 15.9375 16.0312 15.9375C17.0133 15.9375 17.8125 15.1383 17.8125 14.1562C17.8125 13.1742 17.0133 12.375 16.0312 12.375ZM16.0312 14.75C15.8784 14.7432 15.734 14.6776 15.6283 14.567C15.5225 14.4564 15.4635 14.3093 15.4635 14.1562C15.4635 14.0032 15.5225 13.8561 15.6283 13.7455C15.734 13.6349 15.8784 13.5693 16.0312 13.5625C16.1841 13.5693 16.3285 13.6349 16.4342 13.7455C16.54 13.8561 16.599 14.0032 16.599 14.1562C16.599 14.3093 16.54 14.4564 16.4342 14.567C16.3285 14.6776 16.1841 14.7432 16.0312 14.75ZM9.5 4.65625C9.93403 4.65625 10.3265 4.49416 10.6358 4.23587L15.4375 7.07341V11.1875H16.625V6.73438C16.625 6.63118 16.5981 6.52975 16.547 6.44011C16.4959 6.35046 16.4223 6.27568 16.3335 6.22316L11.2468 3.21759C11.269 3.10676 11.2805 2.99256 11.2812 2.875C11.2812 1.89294 10.4821 1.09375 9.5 1.09375C8.51794 1.09375 7.71875 1.89294 7.71875 2.875C7.71875 3.85706 8.51794 4.65625 9.5 4.65625ZM9.5 2.28125C9.6176 2.28113 9.73259 2.31591 9.83042 2.38117C9.92825 2.44643 10.0045 2.53925 10.0496 2.64787C10.0946 2.7565 10.1065 2.87605 10.0835 2.9914C10.0606 3.10675 10.004 3.2127 9.92086 3.29586C9.8377 3.37901 9.73174 3.43563 9.6164 3.45855C9.50105 3.48146 9.3815 3.46964 9.27287 3.42458C9.16425 3.37952 9.07143 3.30325 9.00617 3.20542C8.94091 3.10759 8.90613 2.9926 8.90625 2.875C8.90625 2.54725 9.17284 2.28125 9.5 2.28125Z" fill="url(#paint1_linear_1113_644)"/>
<defs>
<linearGradient id="paint0_linear_1113_644" x1="5.34375" y1="15.3443" x2="13.6562" y2="15.3443" gradientUnits="userSpaceOnUse">
<stop stop-color="#2BBDF1"/>
<stop offset="1" stop-color="#2922FF"/>
</linearGradient>
<linearGradient id="paint1_linear_1113_644" x1="1.1875" y1="18.9061" x2="17.8125" y2="18.9061" gradientUnits="userSpaceOnUse">
<stop stop-color="#2BBDF1"/>
<stop offset="1" stop-color="#2922FF"/>
</linearGradient>
</defs>
</svg>
