<svg width="19" height="20" viewBox="0 0 19 20" fill="none" xmlns="http://www.w3.org/2000/svg">
<path d="M1.58301 4.45833C1.58301 4.03841 1.74982 3.63568 2.04676 3.33875C2.34369 3.04181 2.74642 2.875 3.16634 2.875H7.91634V17.125H3.16634C2.74642 17.125 2.34369 16.9582 2.04676 16.6613C1.74982 16.3643 1.58301 15.9616 1.58301 15.5417V4.45833ZM11.083 2.875H15.833C16.2529 2.875 16.6557 3.04181 16.9526 3.33875C17.2495 3.63568 17.4163 4.03841 17.4163 4.45833V8.41667H11.083V2.875ZM11.083 11.5833H17.4163V15.5417C17.4163 15.9616 17.2495 16.3643 16.9526 16.6613C16.6557 16.9582 16.2529 17.125 15.833 17.125H11.083V11.5833Z" stroke="url(#paint0_linear_1113_639)" stroke-linecap="round" stroke-linejoin="round"/>
<defs>
<linearGradient id="paint0_linear_1113_639" x1="1.58301" y1="17.125" x2="17.4163" y2="17.125" gradientUnits="userSpaceOnUse">
<stop stop-color="#2BBDF1"/>
<stop offset="1" stop-color="#2922FF"/>
</linearGradient>
</defs>
</svg>
