<svg width="23" height="25" viewBox="0 0 23 25" fill="none" xmlns="http://www.w3.org/2000/svg">
<path d="M11.4558 19.4836H19.4008C19.7102 19.501 20.0188 19.4388 20.2974 19.303C20.5759 19.1672 20.815 18.9623 20.9919 18.7078C21.1688 18.4534 21.2775 18.1579 21.3078 17.8495C21.338 17.5411 21.2888 17.2301 21.1648 16.9461C20.7448 15.6768 19.0706 14.1543 19.0706 12.6563C19.0706 9.3313 19.0706 8.4563 17.4326 6.50097C16.9025 5.87159 16.2453 5.36148 15.5041 5.00414L14.5906 4.5608C14.4373 4.46828 14.3051 4.34471 14.2024 4.19804C14.0998 4.05136 14.0289 3.88483 13.9944 3.70914C13.9031 3.11695 13.59 2.58165 13.1186 2.21182C12.6471 1.84199 12.0527 1.66532 11.4558 1.71764C10.8697 1.68244 10.2915 1.86699 9.83411 2.23524C9.37677 2.60349 9.07311 3.129 8.98244 3.70914C8.94132 3.89089 8.86075 4.06139 8.74644 4.20856C8.63213 4.35573 8.48687 4.47598 8.32094 4.5608L7.40744 5.00414C6.66665 5.36162 6.00984 5.87172 5.48011 6.50097C3.84328 8.4563 3.84328 9.3313 3.84328 12.6563C3.84328 14.1543 2.24494 15.524 1.82494 16.8691C1.57178 17.6823 1.43178 19.4836 3.55161 19.4836H11.4558Z" stroke="#000617" stroke-width="1.5" stroke-linecap="round" stroke-linejoin="round"/>
<path d="M15.2625 19.4836C15.2725 19.9863 15.1809 20.4858 14.9931 20.9522C14.8054 21.4186 14.5253 21.8422 14.1698 22.1977C13.8143 22.5533 13.3906 22.8333 12.9243 23.0211C12.4579 23.2088 11.9584 23.3005 11.4557 23.2905C10.9529 23.3011 10.4532 23.2099 9.98654 23.0224C9.51992 22.8348 9.09608 22.5548 8.74053 22.1991C8.38497 21.8435 8.10507 21.4196 7.91766 20.9529C7.73025 20.4862 7.63922 19.9864 7.65003 19.4836" stroke="#000617" stroke-width="1.5" stroke-linecap="round" stroke-linejoin="round"/>
</svg>
