<svg width="31" height="31" viewBox="0 0 31 31" fill="none" xmlns="http://www.w3.org/2000/svg">
<path d="M6.275 22.9375C7.55 21.9896 8.975 21.2422 10.55 20.6953C12.125 20.1485 13.775 19.875 15.5 19.875C17.225 19.875 18.875 20.1485 20.45 20.6953C22.025 21.2422 23.45 21.9896 24.725 22.9375C25.6 21.941 26.2813 20.8108 26.7688 19.5469C27.2563 18.283 27.5 16.934 27.5 15.5C27.5 12.2674 26.3313 9.51478 23.9938 7.24221C21.6563 4.96964 18.825 3.83335 15.5 3.83335C12.175 3.83335 9.34375 4.96964 7.00625 7.24221C4.66875 9.51478 3.5 12.2674 3.5 15.5C3.5 16.934 3.74375 18.283 4.23125 19.5469C4.71875 20.8108 5.4 21.941 6.275 22.9375ZM15.5 16.9584C14.025 16.9584 12.7813 16.4662 11.7688 15.4818C10.7563 14.4974 10.25 13.2882 10.25 11.8542C10.25 10.4202 10.7563 9.21096 11.7688 8.22658C12.7813 7.24221 14.025 6.75002 15.5 6.75002C16.975 6.75002 18.2188 7.24221 19.2313 8.22658C20.2438 9.21096 20.75 10.4202 20.75 11.8542C20.75 13.2882 20.2438 14.4974 19.2313 15.4818C18.2188 16.4662 16.975 16.9584 15.5 16.9584ZM15.5 30.0834C13.425 30.0834 11.475 29.7005 9.65 28.9349C7.825 28.1693 6.2375 27.1302 4.8875 25.8177C3.5375 24.5052 2.46875 22.9618 1.68125 21.1875C0.89375 19.4132 0.5 17.5174 0.5 15.5C0.5 13.4827 0.89375 11.5868 1.68125 9.81252C2.46875 8.03821 3.5375 6.49481 4.8875 5.18231C6.2375 3.86981 7.825 2.83075 9.65 2.06512C11.475 1.2995 13.425 0.916687 15.5 0.916687C17.575 0.916687 19.525 1.2995 21.35 2.06512C23.175 2.83075 24.7625 3.86981 26.1125 5.18231C27.4625 6.49481 28.5312 8.03821 29.3187 9.81252C30.1062 11.5868 30.5 13.4827 30.5 15.5C30.5 17.5174 30.1062 19.4132 29.3187 21.1875C28.5312 22.9618 27.4625 24.5052 26.1125 25.8177C24.7625 27.1302 23.175 28.1693 21.35 28.9349C19.525 29.7005 17.575 30.0834 15.5 30.0834Z" fill="#000617"/>
</svg>
