<svg width="81" height="29" viewBox="0 0 81 29" fill="none" xmlns="http://www.w3.org/2000/svg">
<path d="M24.8184 10.8368C26.0736 10.8368 27.145 10.3932 28.0328 9.50603C28.9206 8.61885 29.3645 7.54813 29.3645 6.29385H11.9608C10.7056 6.29385 9.63415 6.73743 8.74636 7.62457C7.85857 8.51175 7.41467 9.58249 7.41467 10.8368V28.2284C8.66983 28.2284 9.7413 27.7849 10.6291 26.8977C11.5169 26.0105 11.9608 24.9398 11.9608 23.6855V10.8368H24.8184ZM49.2939 10.8521C50.549 10.8521 51.6205 10.4085 52.5083 9.52132C53.396 8.63414 53.8399 7.55832 53.8399 6.29385H36.4515C35.1862 6.29385 34.1096 6.73998 33.2218 7.63224C32.334 8.52453 31.8901 9.59781 31.8901 10.8521V14.9973C31.8901 16.2516 32.334 17.3223 33.2218 18.2095C34.1096 19.0967 35.1862 19.5403 36.4515 19.5403H49.2939V23.6855H36.4515C35.1862 23.6855 34.1096 24.1291 33.2218 25.0162C32.334 25.9034 31.8901 26.9742 31.8901 28.2284H49.2939C50.549 28.2284 51.6205 27.7849 52.5083 26.8977C53.396 26.0105 53.8399 24.9398 53.8399 23.6855V19.5403C53.8399 18.286 53.396 17.2153 52.5083 16.3281C51.6205 15.4409 50.549 14.9973 49.2939 14.9973H36.4515V10.8521H49.2939ZM68.2895 26.8977C69.1772 26.0105 69.6211 24.9398 69.6211 23.6855V10.8368C69.6211 9.58249 69.1772 8.51175 68.2895 7.62457C67.4018 6.73743 66.3303 6.29385 65.0752 6.29385H59.5036C58.2381 6.29385 57.1615 6.73743 56.2738 7.62457C55.3861 8.51175 54.9422 9.58249 54.9422 10.8368H65.0752V28.2284C66.3303 28.2284 67.4018 27.7849 68.2895 26.8977ZM78.4992 9.50603C77.6115 10.3932 76.54 10.8368 75.2848 10.8368H70.6009V6.29385H79.8308C79.8308 7.54813 79.3869 8.61885 78.4992 9.50603ZM12.9404 15.395H22.002C22.002 16.6493 21.5581 17.72 20.6703 18.6072C19.7825 19.4944 18.711 19.938 17.4559 19.938H12.9404V15.395Z" fill="#041645"/>
<path fill-rule="evenodd" clip-rule="evenodd" d="M0.590942 0.18161C0.590942 0.252273 0.596941 0.323326 0.608934 0.393905C0.620927 0.464481 0.63891 0.534931 0.662896 0.605254C0.686882 0.675577 0.716873 0.745688 0.752852 0.815588C0.788832 0.885485 0.830807 0.955087 0.87878 1.02439C0.926752 1.0937 0.980214 1.16262 1.03918 1.23117C1.09915 1.29971 1.16461 1.3678 1.23557 1.43542C1.30653 1.50304 1.38349 1.57012 1.46644 1.63665C1.54939 1.70318 1.63785 1.76909 1.73179 1.83437C1.82574 1.89966 1.92518 1.96424 2.03012 2.02812C2.13506 2.092 2.245 2.1551 2.35993 2.21742C2.47586 2.27973 2.59679 2.3412 2.72272 2.40181C2.84865 2.46242 2.98007 2.5221 3.11699 2.58086C3.25292 2.63961 3.39383 2.69737 3.53975 2.75412C3.68666 2.81088 3.83758 2.86657 3.99249 2.92119C4.1484 2.97582 4.30881 3.02931 4.47372 3.08167C4.63862 3.13402 4.80753 3.18518 4.98043 3.23515C5.15433 3.28512 5.33223 3.33383 5.51412 3.38128C5.69602 3.42874 5.88141 3.47488 6.07031 3.51971C6.2602 3.56454 6.45359 3.608 6.65048 3.65009C6.84736 3.69218 7.04775 3.73286 7.25163 3.77212C7.45652 3.81138 7.6639 3.84917 7.87378 3.8855C8.08466 3.92183 8.29803 3.95665 8.5139 3.98996C8.73078 4.02327 8.95016 4.05503 9.17203 4.08525C9.39291 4.11545 9.61678 4.14407 9.84365 4.17113C10.0705 4.19817 10.2994 4.22359 10.5303 4.24739C10.7611 4.2712 10.994 4.29335 11.2289 4.31385C11.4637 4.33438 11.7001 4.35322 11.938 4.37038C12.1758 4.38756 12.4152 4.40305 12.656 4.41684C12.8969 4.43063 13.1388 4.44271 13.3816 4.45307C13.6235 4.46343 13.8668 4.47208 14.1117 4.47902C14.3556 4.48593 14.5999 4.49113 14.8448 4.49461C15.0896 4.49806 15.335 4.49979 15.5809 4.49979H80.0455C80.0455 4.42912 80.0395 4.35807 80.0275 4.28751C80.0155 4.21692 79.997 4.14646 79.972 4.07613C79.948 4.00582 79.9181 3.93571 79.8821 3.86581C79.8461 3.79592 79.8046 3.72631 79.7577 3.65701C79.7097 3.5877 79.6557 3.51878 79.5958 3.45023C79.5358 3.38168 79.4703 3.3136 79.3994 3.24598C79.3284 3.17836 79.2515 3.11129 79.1685 3.04475C79.0855 2.97822 78.9976 2.91231 78.9047 2.84703C78.8107 2.78174 78.7113 2.71716 78.6063 2.65329C78.5014 2.58941 78.3909 2.5263 78.275 2.46398C78.1591 2.40167 78.0381 2.3402 77.9122 2.27959C77.7863 2.21898 77.6554 2.1593 77.5194 2.10055C77.3825 2.04179 77.2411 1.98404 77.0952 1.92728C76.9493 1.87052 76.7984 1.81483 76.6424 1.76021C76.4865 1.70559 76.3261 1.65209 76.1612 1.59974C75.9973 1.54738 75.8284 1.49622 75.6545 1.44625C75.4806 1.39628 75.3032 1.34757 75.1223 1.30012C74.9404 1.25266 74.7545 1.20652 74.5646 1.16169C74.3747 1.11687 74.1813 1.07341 73.9845 1.03131C73.7876 0.989218 73.5872 0.948542 73.3833 0.909284C73.1794 0.870023 72.972 0.832229 72.7612 0.795902C72.5513 0.759574 72.3379 0.724755 72.121 0.691445C71.9051 0.658134 71.6863 0.626373 71.4644 0.59616C71.2425 0.565947 71.0182 0.53732 70.7913 0.51028C70.5644 0.483236 70.3355 0.457812 70.1047 0.434008C69.8738 0.410203 69.6409 0.388044 69.4061 0.367529C69.1712 0.347018 68.9349 0.328178 68.697 0.311009C68.4591 0.29384 68.2198 0.278362 67.9789 0.264575C67.739 0.250789 67.4977 0.238711 67.2548 0.228341C67.0119 0.217975 66.7686 0.209328 66.5247 0.202402C66.2799 0.195476 66.035 0.190278 65.7902 0.186809C65.5453 0.183343 65.3004 0.18161 65.0556 0.18161H0.590942Z" fill="#041645"/>
</svg>
