<svg width="261" height="200" viewBox="0 0 261 200" fill="none" xmlns="http://www.w3.org/2000/svg">
<circle cx="131" cy="99.5" r="83.5" fill="#0035C0"/>
<g filter="url(#filter0_d_773_382)">
<path d="M110.376 96.0046C111.961 96.0046 113.315 95.4442 114.436 94.3236C115.557 93.203 116.118 91.8505 116.118 90.2661H94.1346C92.5491 90.2661 91.1956 90.8264 90.0742 91.947C88.9528 93.0677 88.3921 94.4202 88.3921 96.0046V117.973C89.9775 117.973 91.331 117.413 92.4524 116.292C93.5738 115.171 94.1346 113.819 94.1346 112.234V96.0046H110.376ZM141.292 96.0239C142.878 96.0239 144.231 95.4636 145.352 94.3429C146.474 93.2223 147.034 91.8633 147.034 90.2661H125.07C123.472 90.2661 122.112 90.8296 120.991 91.9567C119.869 93.0838 119.308 94.4395 119.308 96.0239V101.26C119.308 102.844 119.869 104.197 120.991 105.317C122.112 106.438 123.472 106.998 125.07 106.998H141.292V112.234H125.07C123.472 112.234 122.112 112.795 120.991 113.915C119.869 115.036 119.308 116.389 119.308 117.973H141.292C142.878 117.973 144.231 117.413 145.352 116.292C146.474 115.171 147.034 113.819 147.034 112.234V106.998C147.034 105.414 146.474 104.062 145.352 102.941C144.231 101.82 142.878 101.26 141.292 101.26H125.07V96.0239H141.292ZM165.287 116.292C166.408 115.171 166.969 113.819 166.969 112.234V96.0046C166.969 94.4202 166.408 93.0677 165.287 91.947C164.165 90.8264 162.812 90.2661 161.226 90.2661H154.189C152.59 90.2661 151.23 90.8264 150.109 91.947C148.988 93.0677 148.427 94.4202 148.427 96.0046H161.226V117.973C162.812 117.973 164.165 117.413 165.287 116.292ZM178.183 94.3236C177.062 95.4442 175.708 96.0046 174.123 96.0046H168.206V90.2661H179.865C179.865 91.8505 179.304 93.203 178.183 94.3236ZM95.372 101.762H106.818C106.818 103.347 106.257 104.699 105.136 105.82C104.015 106.94 102.661 107.501 101.076 107.501H95.372V101.762Z" fill="white"/>
<path fill-rule="evenodd" clip-rule="evenodd" d="M83 82C83 82.0982 83.0073 82.1969 83.022 82.295C83.0366 82.393 83.0586 82.4909 83.0878 82.5886C83.1171 82.6864 83.1537 82.7838 83.1977 82.8809C83.2416 82.978 83.2928 83.0747 83.3514 83.171C83.41 83.2673 83.4752 83.3631 83.5472 83.4583C83.6204 83.5536 83.7004 83.6482 83.787 83.7421C83.8736 83.8361 83.9676 83.9293 84.0688 84.0217C84.1701 84.1142 84.2781 84.2058 84.3928 84.2965C84.5075 84.3872 84.6289 84.4769 84.757 84.5657C84.8851 84.6544 85.0193 84.7421 85.1596 84.8287C85.3012 84.9153 85.4488 85.0007 85.6025 85.0849C85.7563 85.1691 85.9167 85.2521 86.0839 85.3337C86.2498 85.4153 86.4218 85.4956 86.6 85.5744C86.7793 85.6533 86.9636 85.7307 87.1527 85.8066C87.343 85.8825 87.5389 85.9568 87.7402 86.0296C87.9415 86.1023 88.1477 86.1734 88.3588 86.2428C88.5711 86.3122 88.7883 86.3799 89.0103 86.4459C89.2324 86.5118 89.4587 86.5759 89.6893 86.6382C89.9212 86.7005 90.1573 86.7609 90.3976 86.8194C90.638 86.8779 90.8826 86.9344 91.1315 86.9889C91.3817 87.0435 91.6348 87.096 91.8911 87.1465C92.1485 87.1969 92.409 87.2453 92.6725 87.2916C92.9373 87.3379 93.2051 87.382 93.476 87.424C93.7456 87.466 94.019 87.5057 94.2959 87.5433C94.5729 87.5809 94.8523 87.6162 95.1341 87.6493C95.416 87.6824 95.7003 87.7132 95.987 87.7416C96.2738 87.7702 96.5623 87.7963 96.8527 87.8202C97.1431 87.8441 97.4353 87.8656 97.7294 87.8847C98.0234 87.9039 98.3187 87.9207 98.6152 87.9351C98.9104 87.9495 99.2075 87.9615 99.5065 87.9711C99.8042 87.9807 100.102 87.988 100.401 87.9928C100.7 87.9976 101 88 101.3 88H180C180 87.9018 179.993 87.8031 179.978 87.705C179.963 87.607 179.941 87.5091 179.91 87.4113C179.881 87.3136 179.844 87.2162 179.801 87.1191C179.757 87.022 179.706 86.9253 179.649 86.829C179.59 86.7327 179.524 86.6369 179.451 86.5417C179.378 86.4464 179.298 86.3518 179.211 86.2579C179.125 86.1639 179.031 86.0707 178.929 85.9783C178.828 85.8858 178.721 85.7942 178.607 85.7035C178.493 85.6128 178.371 85.5231 178.243 85.4343C178.115 85.3456 177.98 85.2579 177.839 85.1713C177.697 85.0847 177.549 84.9993 177.396 84.9151C177.242 84.8309 177.082 84.748 176.916 84.6663C176.749 84.5847 176.576 84.5044 176.398 84.4256C176.22 84.3467 176.036 84.2693 175.845 84.1934C175.655 84.1175 175.459 84.0432 175.258 83.9704C175.058 83.8977 174.852 83.8266 174.639 83.7572C174.427 83.6878 174.211 83.6201 173.99 83.5541C173.768 83.4882 173.541 83.4241 173.309 83.3618C173.077 83.2995 172.841 83.2391 172.601 83.1806C172.36 83.1222 172.116 83.0656 171.867 83.0111C171.618 82.9565 171.365 82.904 171.107 82.8535C170.851 82.8031 170.59 82.7547 170.326 82.7084C170.062 82.6621 169.795 82.618 169.524 82.576C169.253 82.534 168.979 82.4942 168.702 82.4567C168.425 82.4191 168.146 82.3838 167.864 82.3507C167.582 82.3176 167.298 82.2868 167.011 82.2583C166.724 82.2298 166.436 82.2037 166.145 82.1798C165.855 82.1559 165.563 82.1344 165.269 82.1153C164.976 82.0961 164.681 82.0793 164.385 82.0649C164.088 82.0505 163.791 82.0385 163.494 82.0289C163.195 82.0193 162.896 82.012 162.597 82.0072C162.298 82.0024 161.999 82 161.7 82H83Z" fill="white"/>
</g>
<defs>
<filter id="filter0_d_773_382" x="0.599998" y="0.0999985" width="259.82" height="199.8" filterUnits="userSpaceOnUse" color-interpolation-filters="sRGB">
<feFlood flood-opacity="0" result="BackgroundImageFix"/>
<feColorMatrix in="SourceAlpha" type="matrix" values="0 0 0 0 0 0 0 0 0 0 0 0 0 0 0 0 0 0 127 0" result="hardAlpha"/>
<feMorphology radius="33" operator="dilate" in="SourceAlpha" result="effect1_dropShadow_773_382"/>
<feOffset/>
<feGaussianBlur stdDeviation="21.45"/>
<feComposite in2="hardAlpha" operator="out"/>
<feColorMatrix type="matrix" values="0 0 0 0 0.266667 0 0 0 0 0.309804 0 0 0 0 0.733333 0 0 0 0.25 0"/>
<feBlend mode="normal" in2="BackgroundImageFix" result="effect1_dropShadow_773_382"/>
<feBlend mode="normal" in="SourceGraphic" in2="effect1_dropShadow_773_382" result="shape"/>
</filter>
</defs>
</svg>
