<svg width="116" height="42" viewBox="0 0 116 42" fill="none" xmlns="http://www.w3.org/2000/svg">
<path d="M35.816 15.9217C37.6327 15.9217 39.1835 15.2797 40.4684 13.9956C41.7534 12.7116 42.3959 11.1618 42.3959 9.34644H17.2063C15.3896 9.34644 13.8388 9.98845 12.5538 11.2725C11.2689 12.5565 10.6264 14.1063 10.6264 15.9217V41.0938C12.4431 41.0938 13.9939 40.4518 15.2789 39.1678C16.5638 37.8837 17.2063 36.334 17.2063 34.5185V15.9217H35.816ZM71.2411 15.9439C73.0577 15.9439 74.6085 15.3018 75.8935 14.0178C77.1784 12.7337 77.8208 11.1766 77.8208 9.34644H52.6534C50.822 9.34644 49.2638 9.99215 47.9789 11.2836C46.6939 12.575 46.0514 14.1285 46.0514 15.9439V21.9435C46.0514 23.7589 46.6939 25.3087 47.9789 26.5927C49.2638 27.8768 50.822 28.5189 52.6534 28.5189H71.2411V34.5185H52.6534C50.822 34.5185 49.2638 35.1606 47.9789 36.4446C46.6939 37.7287 46.0514 39.2784 46.0514 41.0938H71.2411C73.0577 41.0938 74.6085 40.4518 75.8935 39.1678C77.1784 37.8837 77.8208 36.334 77.8208 34.5185V28.5189C77.8208 26.7035 77.1784 25.1537 75.8935 23.8697C74.6085 22.5856 73.0577 21.9435 71.2411 21.9435H52.6534V15.9439H71.2411ZM98.7347 39.1678C100.02 37.8837 100.662 36.334 100.662 34.5185V15.9217C100.662 14.1063 100.02 12.5565 98.7347 11.2725C97.4499 9.98845 95.8991 9.34644 94.0824 9.34644H86.0183C84.1867 9.34644 82.6285 9.98845 81.3436 11.2725C80.0587 12.5565 79.4163 14.1063 79.4163 15.9217H94.0824V41.0938C95.8991 41.0938 97.4499 40.4518 98.7347 39.1678ZM113.512 13.9956C112.227 15.2797 110.676 15.9217 108.86 15.9217H102.08V9.34644H115.439C115.439 11.1618 114.797 12.7116 113.512 13.9956ZM18.6242 22.5192H31.7396C31.7396 24.3346 31.0971 25.8843 29.8122 27.1684C28.5272 28.4524 26.9764 29.0945 25.1597 29.0945H18.6242V22.5192Z" fill="black"/>
<path fill-rule="evenodd" clip-rule="evenodd" d="M0.75 0.499756C0.75 0.602031 0.758681 0.70487 0.77604 0.807025C0.793398 0.909175 0.819426 1.01114 0.854143 1.11292C0.88886 1.21471 0.932268 1.31618 0.984343 1.41736C1.03642 1.51852 1.09717 1.61926 1.16661 1.71957C1.23604 1.81988 1.31342 1.91964 1.39876 2.01886C1.48556 2.11806 1.58032 2.21661 1.68302 2.31448C1.78572 2.41235 1.89711 2.50943 2.01717 2.60573C2.13723 2.70203 2.26526 2.79742 2.40123 2.89191C2.53721 2.9864 2.68113 3.07988 2.83302 3.17233C2.9849 3.26479 3.14403 3.35612 3.31038 3.44632C3.47818 3.53651 3.6532 3.62547 3.83547 3.7132C4.01773 3.80092 4.20795 3.88731 4.40613 3.97235C4.60286 4.05739 4.80681 4.14098 5.01801 4.22313C5.23065 4.30528 5.44908 4.38588 5.6733 4.46494C5.89896 4.544 6.13112 4.62142 6.3698 4.69721C6.60848 4.77298 6.85296 4.84703 7.10321 4.91936C7.35491 4.99168 7.61238 5.06218 7.87565 5.13086C8.13892 5.19955 8.40726 5.26633 8.68066 5.33121C8.9555 5.3961 9.23541 5.459 9.52038 5.51993C9.80535 5.58085 10.0954 5.63972 10.3905 5.69654C10.687 5.75336 10.9872 5.80807 11.2909 5.86065C11.5962 5.91323 11.905 5.96362 12.2174 6.01184C12.5313 6.06005 12.8489 6.10602 13.17 6.14976C13.4897 6.19346 13.8137 6.2349 14.1421 6.27407C14.4704 6.31319 14.8017 6.34999 15.1358 6.38444C15.47 6.4189 15.807 6.45096 16.147 6.48063C16.4869 6.51034 16.829 6.53761 17.1733 6.56244C17.5176 6.58732 17.864 6.60973 18.2126 6.62969C18.5613 6.64965 18.9113 6.66713 19.2628 6.68213C19.6129 6.69713 19.9651 6.70965 20.3195 6.71969C20.6725 6.72969 21.0262 6.73721 21.3806 6.74226C21.735 6.74726 22.0901 6.74976 22.4459 6.74976H115.75C115.75 6.64746 115.741 6.54463 115.724 6.44251C115.707 6.34034 115.68 6.23836 115.644 6.13657C115.609 6.0348 115.566 5.93333 115.514 5.83216C115.461 5.73099 115.401 5.63025 115.333 5.52994C115.264 5.42963 115.186 5.32987 115.099 5.23066C115.012 5.13144 114.918 5.0329 114.815 4.93503C114.712 4.83716 114.601 4.74008 114.481 4.64378C114.361 4.54748 114.233 4.45209 114.099 4.3576C113.963 4.26311 113.819 4.16963 113.667 4.07718C113.515 3.98472 113.355 3.89339 113.187 3.80319C113.02 3.71299 112.845 3.62403 112.662 3.53631C112.48 3.44859 112.291 3.3622 112.094 3.27716C111.896 3.19212 111.691 3.10853 111.48 3.02638C111.269 2.94423 111.05 2.86363 110.825 2.78457C110.599 2.70551 110.367 2.62809 110.128 2.55231C109.891 2.47653 109.646 2.40248 109.395 2.33016C109.143 2.25783 108.886 2.18733 108.624 2.11865C108.361 2.04997 108.092 1.98318 107.817 1.9183C107.542 1.85342 107.262 1.79051 106.977 1.72959C106.692 1.66866 106.402 1.60979 106.107 1.55297C105.812 1.49614 105.512 1.44144 105.207 1.38886C104.903 1.33628 104.594 1.28589 104.28 1.23767C103.968 1.18946 103.651 1.14349 103.33 1.09976C103.009 1.05603 102.684 1.0146 102.356 0.975462C102.027 0.93632 101.696 0.899522 101.362 0.865068C101.028 0.830614 100.691 0.798541 100.351 0.76885C100.011 0.739162 99.6688 0.711893 99.3245 0.687043C98.9803 0.662193 98.6338 0.639791 98.2852 0.619837C97.938 0.599883 97.5887 0.582402 97.2372 0.567393C96.8857 0.552389 96.5334 0.539875 96.1805 0.52985C95.8261 0.519825 95.4717 0.512302 95.1173 0.507281C94.7629 0.502264 94.4085 0.499756 94.0541 0.499756H0.75Z" fill="black"/>
</svg>
