<svg width="137" height="137" viewBox="0 0 137 137" fill="none" xmlns="http://www.w3.org/2000/svg">
<path d="M86.3548 19.4574C90.8356 22.7661 93.3615 23.533 98.9904 24.6078C98.0939 25.5119 96.9531 26.1402 95.8354 26.8062C95.3352 27.0904 94.7698 27.3318 94.2349 27.5617C92.5865 28.2706 90.6115 28.7619 88.8229 28.1815C87.4609 27.7394 86.4647 26.7498 85.8805 25.5956C84.786 23.4291 85.441 21.5308 86.3548 19.4574Z" fill="#FEFEFE"/>
<path d="M61.6016 14.2399C61.9331 15.4839 61.3721 17.2329 62.1341 18.3206C61.8837 19.4549 61.5422 20.6079 61.4129 21.7562C61.0403 25.276 62.0599 28.8011 64.2973 31.7286C65.0184 32.6478 65.8565 33.4904 66.7951 34.2398L66.4495 34.546C65.5729 33.7621 64.6005 33.0671 63.5504 32.4738C59.6599 30.296 55.4601 30.3333 51.1172 31.2045C57.7558 25.5531 58.5514 21.3401 61.6016 14.2399Z" fill="#A2D677"/>
<path d="M61.6035 14.2398C63.8679 9.01275 67.6428 4.22558 73.5753 1.8943C79.6423 -0.490252 86.3728 -0.466305 92.6899 1.0916C91.2007 2.07282 89.7895 3.04905 88.4911 4.23032C84.2893 2.42436 79.5497 2.2899 75.1528 3.64046C70.2411 5.14906 66.3314 9.18205 64.1637 13.2495C63.2909 14.8871 62.6808 16.5801 62.136 18.3206C61.3741 17.2328 61.9351 15.4838 61.6035 14.2398Z" fill="#FEFEFE"/>
<path d="M101.551 4.80212C101.677 4.83709 101.716 4.84297 101.846 4.90675C102.672 5.30836 103.457 5.9821 104.132 6.55519C107.203 9.12322 109.374 12.4193 110.388 16.0504C111.541 20.2998 111.035 25.2153 108.409 28.979C106.198 32.1468 102.734 33.8367 98.7157 34.6826C99.5905 33.592 100.438 32.5007 101.233 31.363C102.235 29.8478 103.097 27.9412 103.131 26.1655C103.192 23.184 100.328 22.7353 97.7108 22.0937C96.1912 21.7211 94.6903 21.3543 93.2329 20.8157C90.9296 19.9645 89.1367 18.817 87.4219 17.2242C89.77 13.4808 93.6204 9.10738 97.5749 6.68121C98.8212 5.91666 100.185 5.37035 101.551 4.80212Z" fill="#FEFEFE"/>
<path d="M95.4213 2.21887C96.6575 2.42787 97.914 3.12377 99.036 3.62156C97.1115 4.45372 95.5008 5.60924 93.906 6.85812C89.3515 10.426 83.2383 17.0843 82.9086 22.6413C82.7568 25.1918 83.8224 27.1804 85.7237 29.0319C84.421 30.341 82.7235 31.5111 80.8005 31.9824C78.1415 32.634 76.0074 31.9258 73.746 30.7704C71.0133 29.0541 69.3722 26.6283 68.4859 23.7939C67.0675 19.2601 67.4824 13.6042 70.1674 9.4869C71.4817 7.4727 73.3354 6.07719 75.896 5.47734C79.1825 4.70742 82.404 5.3462 85.5763 6.21896C86.4843 6.46894 87.4516 6.69369 88.2772 7.11694C90.4793 4.94203 92.4601 3.51347 95.4213 2.21887Z" fill="#FEFEFE"/>
<path d="M78.0401 7.90903C79.1621 7.83936 80.2205 7.99445 81.1777 8.54961C82.1638 9.12077 82.8202 10.0325 83.0573 11.0487C83.1876 11.6018 83.1927 12.1723 83.0723 12.7272C82.9519 13.282 82.7085 13.8103 82.3561 14.2812C81.4784 15.4632 80.2292 16.0394 78.7009 16.3154C77.7061 16.3373 76.7634 16.1841 75.9002 15.7302C74.797 15.15 74.0553 14.1808 73.7574 13.0835C73.4639 12.0058 73.6186 10.8776 74.3097 9.94128C75.1686 8.77679 76.5379 8.16644 78.0401 7.90903Z" fill="black"/>
<path d="M76.9081 9.78734C77.1901 9.78529 77.4836 9.77876 77.7641 9.81436C78.3829 9.89299 78.97 10.336 79.2895 10.7929C79.5772 11.2053 79.6712 11.6922 79.5093 12.1586C79.3097 12.7333 78.863 13.0201 78.2875 13.2889C78.0431 13.3185 77.7916 13.3506 77.5429 13.3497C77.2666 13.3468 76.994 13.2936 76.7421 13.1933C76.4901 13.093 76.2641 12.9479 76.0782 12.7669C75.6965 12.3881 75.562 11.901 75.6372 11.402C75.7529 10.6346 76.2329 10.2249 76.9081 9.78734Z" fill="#FEFEFE"/>
<path d="M55.2022 93.5917C55.2567 93.8248 55.2581 93.7594 55.2537 93.9669C54.9938 106.014 50.7875 118.518 40.9961 127.196C41.6489 125.282 42.361 123.363 42.8588 121.414C44.6579 114.366 45.3609 105.937 44.4097 98.7488C44.0346 101.119 43.9555 103.542 43.6432 105.924C43.212 109.214 42.4713 112.435 41.6405 115.662C41.3263 117.267 40.6726 118.943 40.0791 120.485C37.6992 126.669 34.463 131.713 29.9219 136.854C33.1394 124.399 34.9061 111.577 35.9505 98.8487C42.1609 96.769 48.6614 94.6482 55.2022 93.5917Z" fill="#A2D677"/>
<path d="M55.1101 80.6239C56.0728 80.5573 57.0472 80.839 57.941 81.1374C60.5978 82.0223 63.3731 83.5604 64.5753 85.9193C64.371 87.8685 63.5535 88.9557 62.2074 90.44C58.8593 90.4771 55.6539 90.9023 52.3743 91.4556C48.5866 92.0933 44.9373 92.8758 41.3038 94.0348C31.5274 97.1531 20.0861 103.49 11.5343 108.781C7.65568 111.181 3.59708 113.566 0 116.285C0.676097 115.204 1.4015 114.142 2.10507 113.074C10.103 101.247 21.9434 90.7358 36.6388 85.6773C39.1122 84.8257 44.6448 82.9303 47.086 83.0417C48.1489 83.0904 49.2655 83.472 50.2292 83.8536C51.4647 84.3441 52.7137 85.0626 53.1687 86.2536C53.9294 88.2424 52.0437 89.6306 51.1216 91.2225C51.0973 91.2647 51.0742 91.307 51.0505 91.3493C52.0512 90.5873 53.0865 89.8291 53.93 88.925C54.8143 87.9786 55.5046 86.8196 55.3286 85.5543C55.0776 83.7512 53.24 82.6025 51.7542 81.5664C52.846 81.2027 53.9955 80.9312 55.1101 80.6239Z" fill="#FEFEFE"/>
<path d="M66.7962 34.2397C70.4254 37.0331 74.3018 38.5162 79.1831 38.2328C81.7698 38.0827 83.9473 37.2357 86.2578 36.2752C86.787 48.1131 85.3643 60.8193 75.8416 69.9498C68.6397 76.855 61.5226 77.9372 51.8652 79.7992C54.1227 78.2215 56.4698 76.7014 58.5444 74.9328C65.3908 69.0969 70.6278 60.911 71.7397 52.5017C72.5942 46.0533 70.9661 39.7025 66.4506 34.5459L66.7962 34.2397Z" fill="#57B8DA"/>
<path d="M53.6964 33.3946C55.0395 33.2445 56.4004 33.2718 57.7344 33.4757C60.8954 33.9856 63.4762 35.3672 65.3019 37.719C68.6578 42.0427 68.866 47.9601 67.8062 52.9559C65.8644 62.1089 58.8533 70.1123 50.2984 75.2925C54.6995 69.6244 56.6763 63.5968 56.1246 56.758C53.6135 64.4533 48.396 71.3033 41.7142 76.6385C39.183 78.6324 36.473 80.2704 33.6289 81.8853C34.8969 80.004 36.3932 78.2329 37.7173 76.3798C42.1177 70.2224 44.5299 64.4558 44.8408 57.1153C44.1678 58.3478 43.649 59.6522 42.9823 60.8918C40.8071 65.04 37.9537 68.8817 34.5142 72.2933C34.5631 70.1712 34.8955 68.03 35.1601 65.9208C36.2345 57.3586 38.3293 45.6999 44.2563 38.6149C46.6238 35.7847 49.7302 33.9105 53.6964 33.3946Z" fill="#FEE46C"/>
<path d="M116.698 56.7075C116.928 56.6722 117.067 56.685 117.296 56.7101C117.525 57.5219 99.2032 81.2554 97.2324 84.6478C97.4847 84.5282 97.7377 84.41 97.9915 84.2931C110.386 78.5865 123.948 78.6583 137 82.3235C124.593 85.4841 113.954 89.472 103.362 96.0904C105.551 97.9447 108.305 99.4034 110.629 101.159C114.971 104.439 119.084 108.151 123.085 111.758C118.348 109.373 113.708 106.794 108.875 104.571C97.1732 99.1818 85.4138 94.2642 72.463 91.7592C69.1519 91.1176 65.8451 90.549 62.45 90.4338C63.6177 89.6884 64.8661 88.9393 65.7165 87.893C66.4061 87.0452 66.7951 86.0053 66.5912 84.959C66.1083 82.4618 62.7395 80.7867 60.584 79.4779C61.0558 79.3242 61.5498 79.1731 62.0553 79.1487C64.9235 79.0091 69.6102 81.0876 71.7299 82.7179C72.9791 83.6771 74.1084 84.9833 74.185 86.4996C74.2862 88.5013 72.6943 89.901 71.2629 91.2393C72.2967 90.809 73.2727 90.2865 74.1084 89.5885C75.4979 88.4308 76.108 87.2206 76.1948 85.5571C80.1212 86.604 83.9654 87.8789 87.7026 89.3734C87.3474 88.3648 87.0759 87.3345 86.89 86.2909C85.768 80.026 87.0274 73.4102 91.3275 68.2505C97.0835 61.3456 107.398 57.9259 116.698 56.7075Z" fill="#FEFEFE"/>
</svg>
