<svg width="116" height="112" viewBox="0 0 116 112" fill="none" xmlns="http://www.w3.org/2000/svg">
<rect width="115.458" height="111.674" fill="white"/>
<path d="M39.9682 51.6797C41.5537 51.6797 42.9071 51.1194 44.0285 49.9988C45.1499 48.8781 45.7107 47.5256 45.7107 45.9413H23.727C22.1416 45.9413 20.7881 46.5016 19.6667 47.6222C18.5453 48.7428 17.9846 50.0953 17.9846 51.6797V73.6481C19.57 73.6481 20.9235 73.0878 22.0449 71.9672C23.1663 70.8465 23.727 69.494 23.727 67.9096V51.6797H39.9682ZM70.8846 51.699C72.4701 51.699 73.8235 51.1387 74.9449 50.0181C76.0663 48.8974 76.6269 47.5385 76.6269 45.9413H54.6627C53.0644 45.9413 51.7045 46.5048 50.5831 47.6319C49.4616 48.759 48.9009 50.1147 48.9009 51.699V56.9351C48.9009 58.5195 49.4616 59.872 50.5831 60.9926C51.7045 62.1132 53.0644 62.6736 54.6627 62.6736H70.8846V67.9096H54.6627C53.0644 67.9096 51.7045 68.47 50.5831 69.5906C49.4616 70.7113 48.9009 72.0638 48.9009 73.6481H70.8846C72.4701 73.6481 73.8235 73.0878 74.9449 71.9672C76.0663 70.8465 76.6269 69.494 76.6269 67.9096V62.6736C76.6269 61.0892 76.0663 59.7367 74.9449 58.6161C73.8235 57.4954 72.4701 56.9351 70.8846 56.9351H54.6627V51.699H70.8846ZM94.8791 71.9672C96.0005 70.8465 96.5611 69.494 96.5611 67.9096V51.6797C96.5611 50.0953 96.0005 48.7428 94.8791 47.6222C93.7578 46.5016 92.4044 45.9413 90.8189 45.9413H83.7811C82.1826 45.9413 80.8227 46.5016 79.7014 47.6222C78.58 48.7428 78.0194 50.0953 78.0194 51.6797H90.8189V73.6481C92.4044 73.6481 93.7578 73.0878 94.8791 71.9672ZM107.776 49.9988C106.654 51.1194 105.301 51.6797 103.715 51.6797H97.7987V45.9413H109.458C109.458 47.5256 108.897 48.8781 107.776 49.9988ZM24.9644 57.4375H36.4106C36.4106 59.0218 35.8499 60.3743 34.7285 61.495C33.6071 62.6156 32.2536 63.1759 30.6682 63.1759H24.9644V57.4375Z" fill="#040E29"/>
<path fill-rule="evenodd" clip-rule="evenodd" d="M15.4143 73.6738H15.4137C15.3251 73.6738 15.2366 73.6716 15.1481 73.6673C15.0596 73.6629 14.9712 73.6564 14.8831 73.6477C14.7949 73.639 14.707 73.6282 14.6194 73.6152C14.5317 73.6022 14.4444 73.5871 14.3575 73.5698C14.2707 73.5526 14.1842 73.5332 14.0983 73.5117C14.0123 73.4901 13.927 73.4665 13.8422 73.4408C13.7574 73.4151 13.6733 73.3874 13.5899 73.3575C13.5065 73.3277 13.4238 73.2959 13.342 73.262C13.2601 73.2281 13.1791 73.1922 13.0991 73.1543C13.019 73.1165 12.9398 73.0767 12.8617 73.035C12.7836 72.9933 12.7065 72.9496 12.6305 72.9041C12.5545 72.8586 12.4797 72.8112 12.406 72.762C12.3323 72.7128 12.2599 72.6619 12.1888 72.6091C12.1176 72.5564 12.0478 72.5019 11.9793 72.4457C11.9108 72.3896 11.8437 72.3318 11.7781 72.2723C11.7124 72.2129 11.6483 72.1519 11.5856 72.0893C11.523 72.0267 11.4619 71.9625 11.4024 71.8969C11.3429 71.8313 11.2851 71.7643 11.2289 71.6959C11.1726 71.6274 11.1182 71.5577 11.0654 71.4866C11.0126 71.4154 10.9616 71.343 10.9124 71.2695C10.8632 71.1958 10.8158 71.121 10.7702 71.0451C10.7247 70.9691 10.681 70.8921 10.6392 70.814C10.5975 70.736 10.5577 70.6569 10.5198 70.5769C10.4819 70.4968 10.446 70.4159 10.4121 70.3341C10.3782 70.2523 10.3463 70.1698 10.3165 70.0864C10.2866 70.003 10.2588 69.919 10.2331 69.8342C10.2074 69.7495 10.1838 69.6642 10.1622 69.5783C10.1407 69.4925 10.1213 69.4061 10.104 69.3192C10.0867 69.2324 10.0716 69.1452 10.0586 69.0577C10.0456 68.97 10.0348 68.8822 10.0261 68.7941C10.0174 68.706 10.0109 68.6177 10.0065 68.5293C10.0022 68.4409 10 68.3524 10 68.2638L10 45.9156H10.0006C10.0892 45.9156 10.1777 45.9177 10.2662 45.9221C10.3547 45.9264 10.4431 45.933 10.5312 45.9416C10.6194 45.9503 10.7073 45.9611 10.795 45.9741C10.8826 45.9871 10.9699 46.0022 11.0568 46.0195C11.1437 46.0368 11.2301 46.0562 11.316 46.0777C11.402 46.0992 11.4873 46.1228 11.5721 46.1485C11.6569 46.1742 11.741 46.202 11.8244 46.2318C11.9078 46.2616 11.9905 46.2935 12.0723 46.3274C12.1542 46.3613 12.2352 46.3971 12.3153 46.435C12.3953 46.4728 12.4745 46.5126 12.5526 46.5544C12.6307 46.5961 12.7078 46.6397 12.7838 46.6852C12.8598 46.7308 12.9346 46.7781 13.0083 46.8273C13.082 46.8765 13.1544 46.9275 13.2255 46.9802C13.2967 47.033 13.3665 47.0874 13.435 47.1436C13.5035 47.1997 13.5706 47.2576 13.6362 47.317C13.7019 47.3765 13.766 47.4375 13.8287 47.5001C13.8913 47.5627 13.9524 47.6268 14.0119 47.6924C14.0714 47.758 14.1292 47.8251 14.1854 47.8935C14.2417 47.9619 14.2961 48.0317 14.3489 48.1028C14.4017 48.1739 14.4527 48.2463 14.5019 48.3199C14.5512 48.3935 14.5985 48.4683 14.6441 48.5443C14.6896 48.6202 14.7333 48.6972 14.7751 48.7753C14.8168 48.8534 14.8566 48.9324 14.8945 49.0124C14.9324 49.0925 14.9683 49.1734 15.0022 49.2552C15.0361 49.337 15.068 49.4196 15.0978 49.503C15.1277 49.5864 15.1555 49.6704 15.1812 49.7551C15.2069 49.8398 15.2305 49.9251 15.2521 50.011C15.2736 50.0969 15.293 50.1833 15.3103 50.2701C15.3276 50.3569 15.3427 50.4441 15.3557 50.5317C15.3687 50.6193 15.3796 50.7072 15.3882 50.7953C15.3969 50.8834 15.4034 50.9716 15.4078 51.0601C15.4121 51.1485 15.4143 51.237 15.4143 51.3255V73.6738Z" fill="#040E29"/>
<path fill-rule="evenodd" clip-rule="evenodd" d="M6 38C6 38.0982 6.00778 38.1969 6.02332 38.295C6.03887 38.393 6.06218 38.4909 6.09328 38.5886C6.12437 38.6864 6.16325 38.7838 6.20989 38.8809C6.25653 38.978 6.31095 39.0747 6.37313 39.171C6.43532 39.2673 6.50463 39.3631 6.58107 39.4583C6.6588 39.5536 6.74367 39.6482 6.83566 39.7421C6.92765 39.8361 7.02741 39.9293 7.13494 40.0217C7.24248 40.1142 7.35714 40.2058 7.47893 40.2965C7.60071 40.3872 7.72962 40.4769 7.86566 40.5657C8.0017 40.6544 8.14421 40.7421 8.29321 40.8287C8.4435 40.9153 8.60026 41.0007 8.7635 41.0849C8.92675 41.1691 9.09712 41.2521 9.27462 41.3337C9.45082 41.4153 9.63349 41.4956 9.82265 41.5744C10.0131 41.6533 10.2087 41.7307 10.4096 41.8066C10.6117 41.8825 10.8196 41.9568 11.0334 42.0296C11.2472 42.1023 11.4661 42.1734 11.6903 42.2428C11.9157 42.3122 12.1463 42.3799 12.3821 42.4459C12.6179 42.5118 12.8582 42.5759 13.1031 42.6382C13.3493 42.7005 13.6 42.7609 13.8552 42.8194C14.1104 42.8779 14.3702 42.9344 14.6345 42.9889C14.9001 43.0435 15.1689 43.096 15.441 43.1465C15.7144 43.1969 15.991 43.2453 16.2708 43.2916C16.552 43.3379 16.8364 43.382 17.124 43.424C17.4103 43.466 17.7005 43.5057 17.9946 43.5433C18.2887 43.5809 18.5854 43.6162 18.8847 43.6493C19.184 43.6824 19.4859 43.7132 19.7903 43.7416C20.0948 43.7702 20.4012 43.7963 20.7096 43.8202C21.0179 43.8441 21.3282 43.8656 21.6404 43.8847C21.9527 43.9039 22.2662 43.9207 22.5811 43.9351C22.8946 43.9495 23.2101 43.9615 23.5275 43.9711C23.8436 43.9807 24.1604 43.988 24.4778 43.9928C24.7952 43.9976 25.1133 44 25.432 44H109C109 43.9018 108.992 43.8031 108.977 43.705C108.961 43.607 108.937 43.5091 108.905 43.4113C108.874 43.3136 108.835 43.2162 108.788 43.1191C108.742 43.022 108.688 42.9253 108.627 42.829C108.565 42.7327 108.495 42.6369 108.417 42.5417C108.339 42.4464 108.254 42.3518 108.162 42.2579C108.07 42.1639 107.971 42.0707 107.863 41.9783C107.756 41.8858 107.642 41.7942 107.521 41.7035C107.399 41.6128 107.27 41.5231 107.134 41.4343C106.998 41.3456 106.855 41.2579 106.705 41.1713C106.555 41.0847 106.398 40.9993 106.235 40.9151C106.071 40.8309 105.902 40.748 105.725 40.6663C105.548 40.5847 105.365 40.5044 105.175 40.4256C104.986 40.3467 104.791 40.2693 104.589 40.1934C104.386 40.1175 104.178 40.0432 103.965 39.9704C103.752 39.8977 103.533 39.8266 103.308 39.7572C103.082 39.6878 102.852 39.6201 102.618 39.5541C102.382 39.4882 102.141 39.4241 101.895 39.3618C101.649 39.2995 101.398 39.2391 101.143 39.1806C100.888 39.1222 100.628 39.0656 100.364 39.0111C100.099 38.9565 99.8304 38.904 99.557 38.8535C99.285 38.8031 99.0084 38.7547 98.7272 38.7084C98.4474 38.6621 98.1636 38.618 97.876 38.576C97.5884 38.534 97.2975 38.4942 97.0034 38.4567C96.7093 38.4191 96.4126 38.3838 96.1133 38.3507C95.8141 38.3176 95.5122 38.2868 95.2077 38.2583C94.9032 38.2298 94.5969 38.2037 94.2885 38.1798C93.9802 38.1559 93.6698 38.1344 93.3576 38.1153C93.0467 38.0961 92.7338 38.0793 92.4189 38.0649C92.1041 38.0505 91.7886 38.0385 91.4725 38.0289C91.1551 38.0193 90.8377 38.012 90.5203 38.0072C90.2028 38.0024 89.8854 38 89.568 38H6Z" fill="#040E29"/>
</svg>
