<svg width="30" height="31" viewBox="0 0 30 31" fill="none" xmlns="http://www.w3.org/2000/svg">
<path d="M26.7165 21.8389C26.0696 23.2756 25.7579 23.9178 24.9259 25.1857C23.761 26.9576 22.1181 29.1701 20.0884 29.1842C18.2813 29.2006 17.8149 28.0053 15.361 28.0264C12.9095 28.0381 12.3985 29.2076 10.5891 29.1889C8.55712 29.1701 7.00321 27.1779 5.83837 25.4084C2.58055 20.4467 2.23602 14.6295 4.2493 11.5357C5.6743 9.34199 7.92665 8.05293 10.0431 8.05293C12.1993 8.05293 13.554 9.23652 15.3352 9.23652C17.0649 9.23652 18.1173 8.05059 20.611 8.05059C22.4954 8.05059 24.4876 9.07715 25.9126 10.849C21.2532 13.4037 22.0102 20.0576 26.7165 21.8389ZM18.7173 6.07012C19.6243 4.90527 20.3134 3.2623 20.0626 1.58887C18.5837 1.68965 16.854 2.63418 15.8438 3.85762C14.9274 4.97324 14.1681 6.62793 14.4634 8.22871C16.0782 8.28027 17.7493 7.31699 18.7173 6.07012Z" fill="#1D1D1D"/>
</svg>
